<?xml version="1.0" encoding="UTF-8"?>
<svg width="1000px" height="574px" viewBox="0 0 1000 574" version="1.1" xmlns="http://www.w3.org/2000/svg" xmlns:xlink="http://www.w3.org/1999/xlink">
    <!-- Generator: Sketch 51.3 (57544) - http://www.bohemiancoding.com/sketch -->
    <title>Cycles of Inquiry</title>
    <desc>Created with Sketch.</desc>
    <defs>
        <rect id="path-1" x="60" y="0" width="940" height="574"></rect>
    </defs>
    <g id="Page-1" stroke="none" stroke-width="1" fill="none" fill-rule="evenodd">
        <g id="02_our-model" transform="translate(-220.000000, -3251.000000)">
            <g id="Cycles-of-Inquiry" transform="translate(220.000000, 3251.000000)">
                <g id="Impact">
                    <g id="Image">
                        <mask id="mask-2" fill="white">
                            <use xlink:href="#path-1"></use>
                        </mask>
                        <use id="Mask" fill="#4BC6B9" xlink:href="#path-1"></use>
                        <rect id="Rectangle-4" fill="#33444B" x="0" y="0" width="60" height="574"></rect>
                        <text id="CYCLES-OF-INQUIRY" transform="translate(30.000000, 287.500000) rotate(-90.000000) translate(-30.000000, -287.500000) " font-family="Montserrat, sans-serif" font-size="18" font-weight="500" line-spacing="36" letter-spacing="1.53" fill="#FFFFFF">
                            <tspan x="-75.363" y="286.5">CYCLES OF INQUIRY</tspan>
                        </text>
                    </g>
                </g>
                <g id="noun_Refresh_691920" transform="translate(530.012721, 271.665950) scale(-1, 1) rotate(-107.000000) translate(-530.012721, -271.665950) translate(408.012721, 147.165950)">
                    <g id="Group" transform="translate(122.257120, 124.431783) rotate(-19.000000) translate(-122.257120, -124.431783) translate(27.757120, 25.931783)">
                        <path d="M35.0965853,40.5191828 C35.0965853,40.5191828 47.8997304,13.7978718 47.8965428,13.7921238 C49.1156409,15.9930438 62.7951749,40.6883417 63.7039508,42.3289523 C63.7039508,42.3289523 35.0998547,40.5250124 35.0965853,40.5191828 Z" id="Shape" stroke="#FFFFFF" stroke-width="3.99972534" stroke-linejoin="round"></path>
                        <ellipse id="Oval" fill="#FFFFFF" fill-rule="nonzero" transform="translate(177.867848, 113.037519) scale(-1, 1) rotate(-75.000000) translate(-177.867848, -113.037519) " cx="177.867848" cy="113.037519" rx="7.15169345" ry="7.13406468"></ellipse>
                        <ellipse id="Oval" fill="#FFFFFF" fill-rule="nonzero" transform="translate(174.203876, 130.898628) scale(-1, 1) rotate(-75.000000) translate(-174.203876, -130.898628) " cx="174.203876" cy="130.898628" rx="6.13002285" ry="6.11491248"></ellipse>
                        <ellipse id="Oval" fill="#FFFFFF" fill-rule="nonzero" transform="translate(165.534709, 145.877006) scale(-1, 1) rotate(-75.000000) translate(-165.534709, -145.877006) " cx="165.534709" cy="145.877006" rx="5.10835238" ry="5.0957604"></ellipse>
                        <ellipse id="Oval" fill="#FFFFFF" fill-rule="nonzero" transform="translate(178.764999, 92.750859) scale(-1, 1) rotate(-75.000001) translate(-178.764999, -92.750859) " cx="178.764999" cy="92.7508589" rx="8.17336364" ry="8.15321648"></ellipse>
                        <ellipse id="Oval" fill="#FFFFFF" fill-rule="nonzero" transform="translate(174.233428, 70.649550) scale(-1, 1) rotate(-75.000000) translate(-174.233428, -70.649550) " cx="174.233428" cy="70.6495497" rx="9.19275305" ry="9.17009312"></ellipse>
                        <ellipse id="Oval" fill="#FFFFFF" fill-rule="nonzero" transform="translate(160.577947, 49.093905) scale(-1, 1) rotate(-75.000000) translate(-160.577947, -49.093905) " cx="160.577947" cy="49.0939052" rx="10.2141694" ry="10.1889917"></ellipse>
                        <ellipse id="Oval" fill="#FFFFFF" fill-rule="nonzero" transform="translate(139.844153, 31.614817) scale(-1, 1) rotate(-75.000000) translate(-139.844153, -31.614817) " cx="139.844153" cy="31.6148172" rx="11.2355864" ry="11.207891"></ellipse>
                        <ellipse id="Oval" fill="#FFFFFF" fill-rule="nonzero" transform="translate(111.812011, 15.301986) scale(-1, 1) rotate(-75.000001) translate(-111.812011, -15.301986) " cx="111.812011" cy="15.3019857" rx="12.2570034" ry="12.2267901"></ellipse>
                        <ellipse id="Oval" fill="#FFFFFF" fill-rule="nonzero" transform="translate(78.116419, 18.232887) scale(-1, 1) rotate(-74.999999) translate(-78.116419, -18.232887) " cx="78.1164195" cy="18.2328873" rx="14.2998375" ry="14.2645887"></ellipse>
                        <path d="M153.762853,156.6345 C153.762853,156.6345 140.959729,183.355852 140.962896,183.361559 C139.743777,181.160598 126.064264,156.465321 125.155488,154.82469 C125.155488,154.82469 153.759584,156.628589 153.762853,156.6345 Z" id="Shape" stroke="#FFFFFF" stroke-width="3.99972534" stroke-linejoin="round"></path>
                        <ellipse id="Oval" fill="#FFFFFF" fill-rule="nonzero" transform="translate(10.991570, 84.116144) scale(-1, 1) rotate(105.000000) translate(-10.991570, -84.116144) " cx="10.9915703" cy="84.1161439" rx="7.15169345" ry="7.13406468"></ellipse>
                        <ellipse id="Oval" fill="#FFFFFF" fill-rule="nonzero" transform="translate(14.655583, 66.255117) scale(-1, 1) rotate(105.000000) translate(-14.655583, -66.255117) " cx="14.6555831" cy="66.2551165" rx="6.13002285" ry="6.11491248"></ellipse>
                        <ellipse id="Oval" fill="#FFFFFF" fill-rule="nonzero" transform="translate(23.324791, 51.276718) scale(-1, 1) rotate(105.000000) translate(-23.324791, -51.276718) " cx="23.3247911" cy="51.2767181" rx="5.10835238" ry="5.0957604"></ellipse>
                        <ellipse id="Oval" fill="#FFFFFF" fill-rule="nonzero" transform="translate(10.094460, 104.402783) scale(-1, 1) rotate(104.999999) translate(-10.094460, -104.402783) " cx="10.0944604" cy="104.402783" rx="8.17336364" ry="8.15321648"></ellipse>
                        <ellipse id="Oval" fill="#FFFFFF" fill-rule="nonzero" transform="translate(14.625990, 126.504031) scale(-1, 1) rotate(105.000000) translate(-14.625990, -126.504031) " cx="14.62599" cy="126.504031" rx="9.19275305" ry="9.17009312"></ellipse>
                        <ellipse id="Oval" fill="#FFFFFF" fill-rule="nonzero" transform="translate(28.281471, 148.059676) scale(-1, 1) rotate(105.000000) translate(-28.281471, -148.059676) " cx="28.2814713" cy="148.059676" rx="10.2141694" ry="10.1889917"></ellipse>
                        <ellipse id="Oval" fill="#FFFFFF" fill-rule="nonzero" transform="translate(49.015469, 165.538805) scale(-1, 1) rotate(105.000000) translate(-49.015469, -165.538805) " cx="49.0154691" cy="165.538805" rx="11.2355864" ry="11.207891"></ellipse>
                        <ellipse id="Oval" fill="#FFFFFF" fill-rule="nonzero" transform="translate(77.047611, 181.851555) scale(-1, 1) rotate(104.999999) translate(-77.047611, -181.851555) " cx="77.047611" cy="181.851555" rx="12.2570034" ry="12.2267901"></ellipse>
                        <ellipse id="Oval" fill="#FFFFFF" fill-rule="nonzero" transform="translate(110.742999, 178.920653) scale(-1, 1) rotate(105.000001) translate(-110.742999, -178.920653) " cx="110.742999" cy="178.920653" rx="14.2998375" ry="14.2645887"></ellipse>
                    </g>
                </g>
                <text id="1" font-family="Montserrat-Light, Montserrat" font-size="96" font-weight="300" line-spacing="100" letter-spacing="0.996" fill="#FFFFFF">
                    <tspan x="593" y="148">1</tspan>
                </text>
                <text id="2" font-family="Montserrat-Light, Montserrat" font-size="96" font-weight="300" line-spacing="100" letter-spacing="0.996" fill="#FFFFFF">
                    <tspan x="698" y="306">2</tspan>
                </text>
                <text id="3" font-family="Montserrat-Light, Montserrat" font-size="96" font-weight="300" line-spacing="100" letter-spacing="0.996" fill="#FFFFFF">
                    <tspan x="513" y="498">3</tspan>
                </text>
                <text id="4" font-family="Montserrat-Light, Montserrat" font-size="96" font-weight="300" line-spacing="100" letter-spacing="0.996" fill="#FFFFFF">
                    <tspan x="310" y="393">4</tspan>
                </text>
                <text id="5" font-family="Montserrat-Light, Montserrat" font-size="96" font-weight="300" line-spacing="100" letter-spacing="0.996" fill="#FFFFFF">
                    <tspan x="324" y="171">5</tspan>
                </text>
                <text id="Review-Content-&amp;-Pla" font-family="Montserrat-Medium, Montserrat" font-size="16" font-weight="400" letter-spacing="0.6628571" fill="#33444B">
                    <tspan x="701" y="326">REVIEW CONTENT &amp;</tspan>
                    <tspan x="701" y="345">PLAN FOR INSTRUCTION</tspan>
                </text>
                <text id="Convene-&amp;-Identify-A" font-family="Montserrat-Medium, Montserrat" font-size="16" font-weight="400" letter-spacing="0.6628571" fill="#33444B">
                    <tspan x="649" y="120">CONVENE &amp; IDENTIFY</tspan>
                    <tspan x="649" y="139">A COMMON CHALLENGE</tspan>
                </text>
                <text id="Repeat-Cycle-on-Simi" font-family="Montserrat-Medium, Montserrat" font-size="16" font-weight="400" letter-spacing="0.6628571" fill="#33444B">
                    <tspan x="223.641143" y="193">REPEAT CYCLE ON </tspan>
                    <tspan x="176.470858" y="212">SIMILAR OR NEW TOPIC</tspan>
                </text>
                <text id="Implement-in-classro" font-family="Montserrat-Medium, Montserrat" font-size="16" font-weight="400" letter-spacing="0.6628571" fill="#33444B">
                    <tspan x="584" y="465">IMPLEMENT IN CLASSROOMS </tspan>
                    <tspan x="584" y="484">&amp; GATHER EVIDENCE</tspan>
                </text>
                <text id="Review-Evidence-to-D" font-family="Montserrat-Medium, Montserrat" font-size="16" font-weight="400" letter-spacing="0.6628571" fill="#33444B">
                    <tspan x="178.172572" y="413">REVIEW EVIDENCE TO </tspan>
                    <tspan x="123.258287" y="432">DETERMINE EFFECTIVENESS</tspan>
                </text>
            </g>
        </g>
    </g>
</svg>