<?xml version="1.0" encoding="UTF-8"?>
<svg width="127px" height="140px" viewBox="0 0 127 140" version="1.1" xmlns="http://www.w3.org/2000/svg" xmlns:xlink="http://www.w3.org/1999/xlink">
    <!-- Generator: Sketch 51.3 (57544) - http://www.bohemiancoding.com/sketch -->
    <title>Group 20</title>
    <desc>Created with Sketch.</desc>
    <defs>
        <polygon id="path-1" points="0 140 127 140 127 0.106 0 0.106"></polygon>
    </defs>
    <g id="Page-1" stroke="none" stroke-width="1" fill="none" fill-rule="evenodd">
        <g id="06A_blog-list" transform="translate(-157.000000, -2470.000000)">
            <g id="Group-20" transform="translate(157.000000, 2469.000000)">
                <polygon id="Fill-1" fill="#231F20" points="0 121.7591 0 124.5441 2.633 124.5441 2.633 136.5971 5.497 136.5971 5.497 124.5441 8.2 124.5441 8.2 121.7591"></polygon>
                <g id="Group-19" transform="translate(0.000000, 0.894000)">
                    <path d="M17.2491,128.844 C17.0671,128.233 16.7081,127.735 16.1731,127.352 C15.6371,126.968 15.0161,126.777 14.3091,126.777 C13.5411,126.777 12.8671,126.991 12.2881,127.422 C11.9241,127.691 11.5871,128.165 11.2771,128.844 L17.2491,128.844 Z M20.0021,131.013 L11.1561,131.013 C11.2841,131.793 11.6251,132.413 12.1801,132.874 C12.7351,133.334 13.4431,133.565 14.3041,133.565 C15.3321,133.565 16.2161,133.205 16.9561,132.486 L19.2761,133.574 C18.6981,134.396 18.0051,135.002 17.1981,135.396 C16.3921,135.789 15.4331,135.986 14.3241,135.986 C12.6021,135.986 11.2001,135.443 10.1181,134.357 C9.0351,133.271 8.4941,131.91 8.4941,130.277 C8.4941,128.602 9.0331,127.212 10.1121,126.106 C11.1921,124.999 12.5451,124.447 14.1721,124.447 C15.9001,124.447 17.3061,124.999 18.3891,126.106 C19.4711,127.212 20.0131,128.673 20.0131,130.489 L20.0021,131.013 Z" id="Fill-2" fill="#231F20"></path>
                    <path d="M27.0235,126.9885 C26.1715,126.9885 25.4645,127.2895 24.9015,127.8905 C24.3395,128.4925 24.0575,129.2645 24.0575,130.2065 C24.0575,131.1545 24.3435,131.9335 24.9175,132.5465 C25.4905,133.1585 26.1955,133.4645 27.0335,133.4645 C27.8985,133.4645 28.6145,133.1635 29.1845,132.5605 C29.7545,131.9595 30.0395,131.1715 30.0395,130.1955 C30.0395,129.2415 29.7545,128.4675 29.1845,127.8765 C28.6145,127.2845 27.8945,126.9885 27.0235,126.9885 Z M29.9185,124.7285 L32.6715,124.7285 L32.6715,135.7035 L29.9185,135.7035 L29.9185,134.5435 C29.3805,135.0535 28.8415,135.4225 28.3015,135.6475 C27.7605,135.8735 27.1745,135.9855 26.5435,135.9855 C25.1265,135.9855 23.8995,135.4355 22.8655,134.3365 C21.8315,133.2365 21.3145,131.8705 21.3145,130.2365 C21.3145,128.5415 21.8145,127.1535 22.8155,126.0705 C23.8155,124.9875 25.0315,124.4465 26.4625,124.4465 C27.1205,124.4465 27.7385,124.5705 28.3155,124.8195 C28.8935,125.0685 29.4275,125.4415 29.9185,125.9395 L29.9185,124.7285 Z" id="Fill-4" fill="#231F20"></path>
                    <path d="M45.3717,126.9485 L43.0797,128.2095 C42.6487,127.7585 42.2227,127.4455 41.8017,127.2705 C41.3807,127.0955 40.8877,127.0085 40.3227,127.0085 C39.2917,127.0085 38.4587,127.3155 37.8227,127.9295 C37.1867,128.5445 36.8687,129.3315 36.8687,130.2915 C36.8687,131.2245 37.1747,131.9865 37.7877,132.5775 C38.3997,133.1685 39.2047,133.4645 40.2017,133.4645 C41.4337,133.4645 42.3927,133.0445 43.0797,132.2035 L45.2507,133.6895 C44.0737,135.2195 42.4127,135.9855 40.2677,135.9855 C38.3377,135.9855 36.8267,135.4145 35.7337,134.2705 C34.6417,133.1285 34.0947,131.7895 34.0947,130.2565 C34.0947,129.1935 34.3607,128.2155 34.8917,127.3215 C35.4227,126.4275 36.1637,125.7235 37.1157,125.2135 C38.0667,124.7025 39.1317,124.4465 40.3087,124.4465 C41.3977,124.4465 42.3757,124.6635 43.2437,125.0965 C44.1107,125.5305 44.8207,126.1475 45.3717,126.9485" id="Fill-6" fill="#231F20"></path>
                    <path d="M46.6236,120.4924 L49.3566,120.4924 L49.3566,125.8384 C49.8946,125.3744 50.4366,125.0264 50.9806,124.7944 C51.5256,124.5624 52.0766,124.4464 52.6356,124.4464 C53.7246,124.4464 54.6426,124.8234 55.3886,125.5764 C56.0276,126.2284 56.3466,127.1864 56.3466,128.4504 L56.3466,135.7034 L53.6336,135.7034 L53.6336,130.8914 C53.6336,129.6214 53.5736,128.7604 53.4526,128.3094 C53.3316,127.8594 53.1246,127.5224 52.8316,127.3014 C52.5396,127.0794 52.1776,126.9684 51.7476,126.9684 C51.1896,126.9684 50.7096,127.1534 50.3106,127.5224 C49.9106,127.8924 49.6326,128.3964 49.4776,129.0364 C49.3976,129.3654 49.3566,130.1184 49.3566,131.2954 L49.3566,135.7034 L46.6236,135.7034 L46.6236,120.4924 Z" id="Fill-8" fill="#231F20"></path>
                    <mask id="mask-2" fill="white">
                        <use xlink:href="#path-1"></use>
                    </mask>
                    <g id="Clip-11"></g>
                    <path d="M59.121,135.704 L61.874,135.704 L61.874,124.729 L59.121,124.729 L59.121,135.704 Z M60.497,120.21 C60.98,120.21 61.394,120.385 61.739,120.735 C62.085,121.084 62.257,121.508 62.257,122.005 C62.257,122.496 62.087,122.915 61.744,123.261 C61.402,123.608 60.993,123.781 60.517,123.781 C60.028,123.781 59.61,123.604 59.265,123.251 C58.92,122.899 58.747,122.47 58.747,121.965 C58.747,121.481 58.918,121.068 59.26,120.725 C59.602,120.382 60.014,120.21 60.497,120.21 Z" id="Fill-10" fill="#231F20" mask="url(#mask-2)"></path>
                    <path d="M64.3751,124.7287 L67.1291,124.7287 L67.1291,125.8537 C67.7541,125.3277 68.3191,124.9607 68.8261,124.7547 C69.3331,124.5487 69.8521,124.4467 70.3821,124.4467 C71.4701,124.4467 72.3941,124.8267 73.1521,125.5857 C73.7901,126.2317 74.1091,127.1867 74.1091,128.4507 L74.1091,135.7037 L71.3861,135.7037 L71.3861,130.8977 C71.3861,129.5877 71.3271,128.7177 71.2091,128.2887 C71.0921,127.8577 70.8881,127.5307 70.5961,127.3057 C70.3041,127.0807 69.9431,126.9677 69.5141,126.9677 C68.9571,126.9677 68.4791,127.1547 68.0801,127.5277 C67.6811,127.9007 67.4041,128.4157 67.2501,129.0737 C67.1691,129.4157 67.1291,130.1587 67.1291,131.2997 L67.1291,135.7037 L64.3751,135.7037 L64.3751,124.7287 Z" id="Fill-12" fill="#231F20" mask="url(#mask-2)"></path>
                    <path d="M81.6144,127.0188 C80.7464,127.0188 80.0304,127.3098 79.4664,127.8908 C78.9004,128.4728 78.6184,129.2048 78.6184,130.0848 C78.6184,130.9988 78.9074,131.7488 79.4854,132.3338 C80.0634,132.9188 80.7904,133.2118 81.6644,133.2118 C82.5184,133.2118 83.2224,132.9258 83.7774,132.3548 C84.3324,131.7828 84.6094,131.0338 84.6094,130.1048 C84.6094,129.1908 84.3304,128.4478 83.7724,127.8758 C83.2144,127.3048 82.4954,127.0188 81.6144,127.0188 Z M84.4684,124.7288 L87.2124,124.7288 L87.2124,134.1288 C87.2124,135.9858 86.8394,137.3508 86.0934,138.2248 C85.0904,139.4088 83.5814,139.9998 81.5634,139.9998 C80.4874,139.9998 79.5834,139.8658 78.8504,139.5968 C78.1174,139.3278 77.4994,138.9328 76.9944,138.4118 C76.4904,137.8898 76.1164,137.2558 75.8754,136.5098 L78.9114,136.5098 C79.1794,136.8198 79.5264,137.0528 79.9494,137.2108 C80.3734,137.3698 80.8744,137.4488 81.4524,137.4488 C82.1924,137.4488 82.7874,137.3328 83.2384,137.1048 C83.6884,136.8758 84.0064,136.5808 84.1914,136.2168 C84.3764,135.8548 84.4684,135.2288 84.4684,134.3408 C83.9844,134.8258 83.4764,135.1738 82.9454,135.3858 C82.4144,135.5968 81.8124,135.7038 81.1394,135.7038 C79.6674,135.7038 78.4234,135.1718 77.4084,134.1098 C76.3924,133.0468 75.8854,131.7028 75.8854,130.0748 C75.8854,128.3328 76.4234,126.9348 77.4994,125.8788 C78.4734,124.9238 79.6364,124.4468 80.9884,124.4468 C81.6204,124.4468 82.2184,124.5628 82.7794,124.7938 C83.3414,125.0268 83.9034,125.4088 84.4684,125.9398 L84.4684,124.7288 Z" id="Fill-13" fill="#231F20" mask="url(#mask-2)"></path>
                    <polygon id="Fill-14" fill="#00ADEE" mask="url(#mask-2)" points="94.046 120.8655 96.87 120.8655 96.87 133.0105 100.985 133.0105 100.985 135.7035 94.046 135.7035"></polygon>
                    <path d="M107.6232,126.9885 C106.7712,126.9885 106.0642,127.2895 105.5022,127.8905 C104.9382,128.4925 104.6572,129.2645 104.6572,130.2065 C104.6572,131.1545 104.9432,131.9335 105.5172,132.5465 C106.0902,133.1585 106.7952,133.4645 107.6332,133.4645 C108.4982,133.4645 109.2152,133.1635 109.7842,132.5605 C110.3532,131.9595 110.6392,131.1715 110.6392,130.1955 C110.6392,129.2415 110.3532,128.4675 109.7842,127.8765 C109.2152,127.2845 108.4942,126.9885 107.6232,126.9885 Z M110.5182,124.7285 L113.2712,124.7285 L113.2712,135.7035 L110.5182,135.7035 L110.5182,134.5435 C109.9802,135.0535 109.4412,135.4225 108.9002,135.6475 C108.3602,135.8735 107.7742,135.9855 107.1432,135.9855 C105.7262,135.9855 104.5002,135.4355 103.4652,134.3365 C102.4312,133.2365 101.9142,131.8705 101.9142,130.2365 C101.9142,128.5415 102.4142,127.1535 103.4152,126.0705 C104.4162,124.9875 105.6322,124.4465 107.0622,124.4465 C107.7212,124.4465 108.3382,124.5705 108.9162,124.8195 C109.4932,125.0685 110.0272,125.4415 110.5182,125.9395 L110.5182,124.7285 Z" id="Fill-15" fill="#00ADEE" mask="url(#mask-2)"></path>
                    <path d="M121.2706,126.9885 C120.4036,126.9885 119.6836,127.2845 119.1126,127.8765 C118.5406,128.4675 118.2546,129.2415 118.2546,130.1955 C118.2546,131.1715 118.5406,131.9595 119.1126,132.5605 C119.6836,133.1635 120.4036,133.4645 121.2706,133.4645 C122.1116,133.4645 122.8186,133.1585 123.3936,132.5465 C123.9686,131.9335 124.2556,131.1545 124.2556,130.2065 C124.2556,129.2645 123.9736,128.4925 123.4096,127.8905 C122.8436,127.2895 122.1306,126.9885 121.2706,126.9885 Z M118.3756,120.4925 L118.3756,125.9395 C118.8736,125.4415 119.4116,125.0685 119.9896,124.8195 C120.5676,124.5705 121.1866,124.4465 121.8456,124.4465 C123.2776,124.4465 124.4956,124.9875 125.4976,126.0705 C126.4996,127.1535 126.9996,128.5415 126.9996,130.2365 C126.9996,131.8705 126.4816,133.2365 125.4466,134.3365 C124.4116,135.4355 123.1836,135.9855 121.7646,135.9855 C121.1326,135.9855 120.5436,135.8735 119.9996,135.6475 C119.4556,135.4225 118.9146,135.0535 118.3756,134.5435 L118.3756,135.7035 L115.6426,135.7035 L115.6426,120.4925 L118.3756,120.4925 Z" id="Fill-16" fill="#00ADEE" mask="url(#mask-2)"></path>
                    <path d="M63.5006,75.9436 C51.2326,75.9436 41.2876,65.9986 41.2876,53.7316 C41.2876,41.4636 51.2326,31.5176 63.5006,31.5176 C65.7756,31.5176 67.9706,31.8606 70.0386,32.4966 L67.6636,39.4176 L75.9766,35.3516 C81.8526,39.3476 85.7116,46.0886 85.7116,53.7316 C85.7116,65.9986 75.7676,75.9436 63.5006,75.9436 Z M70.7886,32.7426 C70.5416,32.6566 70.2926,32.5746 70.0426,32.4976 C70.2926,32.5746 70.5416,32.6566 70.7886,32.7426 Z M72.3306,33.3436 C71.8576,33.1396 71.3766,32.9506 70.8876,32.7776 C71.3766,32.9506 71.8576,33.1396 72.3306,33.3436 Z M73.8176,34.0566 C73.3646,33.8186 72.9016,33.5946 72.4306,33.3876 C72.9016,33.5946 73.3646,33.8186 73.8176,34.0566 Z M75.2436,34.8746 C74.8086,34.6036 74.3646,34.3466 73.9106,34.1056 C74.3646,34.3466 74.8086,34.6036 75.2436,34.8746 Z M75.9746,35.3506 C75.7606,35.2046 75.5446,35.0646 75.3266,34.9256 C75.5446,35.0646 75.7606,35.2046 75.9746,35.3506 Z M85.5866,9.1766 L81.1496,0.1056 L78.9676,6.4666 L78.9686,6.4666 C74.1006,4.8746 68.9016,4.0096 63.5006,4.0096 C36.0396,4.0096 13.7786,26.2706 13.7786,53.7316 C13.7786,81.1906 36.0396,103.4526 63.5006,103.4526 C90.9596,103.4526 113.2206,81.1906 113.2206,53.7316 C113.2206,34.2046 101.9636,17.3106 85.5866,9.1766 Z" id="Fill-17" fill="#000000" mask="url(#mask-2)"></path>
                    <path d="M113.2208,53.7312 C113.2208,34.2052 101.9638,17.3112 85.5868,9.1762 L94.0628,26.5042 L75.9768,35.3512 C81.8528,39.3482 85.7118,46.0882 85.7118,53.7312 C85.7118,59.6622 83.3868,65.0492 79.5998,69.0332 L77.4598,64.1222 L73.8108,73.4082 L66.7118,91.4752 L84.9008,98.6212 L94.0628,102.2222 L90.9888,95.1652 C104.3878,86.2582 113.2208,71.0272 113.2208,53.7312" id="Fill-18" fill="#00ADEE" mask="url(#mask-2)"></path>
                </g>
            </g>
        </g>
    </g>
</svg>