<?xml version="1.0" encoding="UTF-8"?>
<svg width="233px" height="53px" viewBox="0 0 233 53" version="1.1" xmlns="http://www.w3.org/2000/svg" xmlns:xlink="http://www.w3.org/1999/xlink">
    <!-- Generator: Sketch 51.3 (57544) - http://www.bohemiancoding.com/sketch -->
    <title>Group 20</title>
    <desc>Created with Sketch.</desc>
    <defs>
        <polygon id="path-1" points="0 53 232.655056 53 232.655056 0.215231707 0 0.215231707"></polygon>
    </defs>
    <g id="Symbols" stroke="none" stroke-width="1" fill="none" fill-rule="evenodd">
        <g id="desktop/nav-top" transform="translate(-120.000000, -28.000000)">
            <g id="Group-20">
                <g transform="translate(120.000000, 28.000000)">
                    <polygon id="Fill-1" fill="#231F20" points="62 18 73 18 73 21.7523366 69.3737985 21.7523366 69.3737985 38 65.5315652 38 65.5315652 21.7523366 62 21.7523366"></polygon>
                    <g id="Group-19">
                        <path d="M85.4205986,28.1422244 C85.1771852,27.3297732 84.6975176,26.6685659 83.980945,26.1592488 C83.2643723,25.6499317 82.4339031,25.3952732 81.4875846,25.3952732 C80.4605623,25.3952732 79.5598025,25.6816024 78.7853053,26.2529683 C78.2984785,26.6103951 77.8474478,27.2399317 77.4335148,28.1422244 L85.4205986,28.1422244 Z M89.1036908,31.0229683 L77.2714561,31.0229683 C77.4419757,32.0590537 77.898864,32.883139 78.6408193,33.494578 C79.3827746,34.1066634 80.3297439,34.4130293 81.4804254,34.4130293 C82.8575986,34.4130293 84.0395204,33.9347366 85.0287941,32.9787976 L88.1319897,34.4259561 C87.3587941,35.5156878 86.4326517,36.3216756 85.3529115,36.8445659 C84.2731712,37.3668098 82.9923221,37.6279317 81.5077606,37.6279317 C79.2050958,37.6279317 77.3293807,36.907261 75.881917,35.4646268 C74.4331517,34.0219927 73.7094198,32.2154683 73.7094198,30.0444073 C73.7094198,27.8203463 74.4311992,25.9737488 75.8747578,24.5046146 C77.3189673,23.0354805 79.1289478,22.3005902 81.30535,22.3005902 C83.6171265,22.3005902 85.4967466,23.0354805 86.9448612,24.5046146 C88.3929757,25.9737488 89.1173584,27.9140659 89.1173584,30.3262122 L89.1036908,31.0229683 Z" id="Fill-2" fill="#231F20"></path>
                        <path d="M98.494567,25.6767549 C97.3562514,25.6767549 96.4105838,26.0768402 95.6575642,26.8757183 C94.9038939,27.6752427 94.5277095,28.7003402 94.5277095,29.951011 C94.5277095,31.2107305 94.9104022,32.2468159 95.6770894,33.0592671 C96.4437765,33.8723646 97.3874916,34.2789134 98.5082346,34.2789134 C99.6641229,34.2789134 100.623458,33.878828 101.384939,33.0793037 C102.14707,32.2804256 102.528461,31.2327061 102.528461,29.9374378 C102.528461,28.6693159 102.14707,27.6422793 101.384939,26.8556817 C100.623458,26.0697305 99.659567,25.6767549 98.494567,25.6767549 Z M102.366402,22.6751451 L106.049494,22.6751451 L106.049494,37.2533768 L102.366402,37.2533768 L102.366402,35.7124988 C101.647877,36.3911573 100.926098,36.8804378 100.203668,37.1790476 C99.4805866,37.4783037 98.6969777,37.6282549 97.8521899,37.6282549 C95.9569497,37.6282549 94.316838,36.897889 92.9331564,35.4378037 C91.5494749,33.977072 90.8582849,32.1614988 90.8582849,29.9910841 C90.8582849,27.7398768 91.5273464,25.8958646 92.8661201,24.4577549 C94.204243,23.0196451 95.8306872,22.3002671 97.7441508,22.3002671 C98.6247346,22.3002671 99.4512989,22.4657305 100.223193,22.796011 C100.996388,23.1269378 101.710358,23.6226817 102.366402,24.2832427 L102.366402,22.6751451 Z" id="Fill-4" fill="#231F20"></path>
                        <path d="M123.036366,25.6231085 L119.970268,27.2977793 C119.394277,26.6999134 118.824142,26.2843159 118.261818,26.0522793 C117.698844,25.8195963 117.038894,25.7039012 116.28262,25.7039012 C114.904796,25.7039012 113.790561,26.1117427 112.939265,26.928072 C112.08862,27.7437549 111.662972,28.7895354 111.662972,30.0647671 C111.662972,31.30445 112.072349,32.3166207 112.892405,33.1012793 C113.71181,33.8865841 114.787645,34.2789134 116.120561,34.2789134 C117.768483,34.2789134 119.051936,33.7204744 119.970268,32.6035963 L122.874958,34.5781695 C121.300581,36.6115598 119.07862,37.6282549 116.210377,37.6282549 C113.628503,37.6282549 111.606349,36.8688037 110.145218,35.3505476 C108.683436,33.8322915 107.952545,32.0548524 107.952545,30.0182305 C107.952545,28.6066207 108.307902,27.306828 109.019268,26.1188524 C109.729332,24.9308768 110.720559,23.9975598 111.993598,23.3189012 C113.265986,22.6402427 114.69002,22.3002671 116.263746,22.3002671 C117.720972,22.3002671 119.029807,22.5885354 120.189601,23.1644256 C121.350045,23.7403159 122.298966,24.5605232 123.036366,25.6231085" id="Fill-6" fill="#231F20"></path>
                        <path d="M124.711167,17.0483549 L128.367575,17.0483549 L128.367575,24.1497085 C129.087402,23.5330988 129.811134,23.0709646 130.539422,22.7626598 C131.26836,22.4543549 132.005759,22.3005256 132.75162,22.3005256 C134.209497,22.3005256 135.436977,22.8007939 136.435363,23.8006841 C137.289913,24.667428 137.716863,25.9400744 137.716863,27.6192695 L137.716863,37.252989 L134.08779,37.252989 L134.08779,30.8619646 C134.08779,29.1737207 134.007086,28.0303427 133.845028,27.4318305 C133.682969,26.8339646 133.406363,26.3866963 133.015209,26.0919646 C132.624056,25.7972329 132.140483,25.6498671 131.564491,25.6498671 C130.818631,25.6498671 130.176905,25.8954768 129.642567,26.3866963 C129.107578,26.8779159 128.7366,27.548172 128.528983,28.3968183 C128.421595,28.8343915 128.367575,29.834928 128.367575,31.3977817 L128.367575,37.252989 L124.711167,37.252989 L124.711167,17.0483549 Z" id="Fill-8" fill="#231F20"></path>
                        <mask id="mask-2" fill="white">
                            <use xlink:href="#path-1"></use>
                        </mask>
                        <g id="Clip-11"></g>
                        <path d="M141.427095,37.2531829 L145.110187,37.2531829 L145.110187,22.6755976 L141.427095,22.6755976 L141.427095,37.2531829 Z M143.268316,16.6730244 C143.913947,16.6730244 144.46781,16.9057073 144.929905,17.3697805 C145.392,17.8345 145.622397,18.3974634 145.622397,19.0580244 C145.622397,19.7101829 145.393953,20.2660366 144.936413,20.7262317 C144.478874,21.1864268 143.93152,21.4165244 143.295651,21.4165244 C142.640257,21.4165244 142.082489,21.1819024 141.620394,20.7126585 C141.158299,20.244061 140.927251,19.6746341 140.927251,19.004378 C140.927251,18.3612683 141.156346,17.811878 141.613885,17.3562073 C142.070774,16.9011829 142.622684,16.6730244 143.268316,16.6730244 Z" id="Fill-10" fill="#231F20" mask="url(#mask-2)"></path>
                        <path d="M148.45595,22.6754037 L152.139042,22.6754037 L152.139042,24.1697451 C152.974067,23.4697573 153.730341,22.9837085 154.408514,22.7103061 C155.086687,22.4369037 155.781132,22.3005256 156.490545,22.3005256 C157.945819,22.3005256 159.180458,22.8053183 160.195115,23.8142573 C161.049014,24.6719524 161.475313,25.9400744 161.475313,27.6192695 L161.475313,37.252989 L157.832573,37.252989 L157.832573,30.8690744 C157.832573,29.1297695 157.753822,27.9747573 157.59697,27.4033915 C157.440118,26.8320256 157.166115,26.3970378 156.775612,26.098428 C156.38576,25.799172 155.902838,25.6498671 155.32945,25.6498671 C154.584241,25.6498671 153.945118,25.8974159 153.41078,26.3925134 C152.877092,26.8882573 152.507416,27.5727329 152.30045,28.4472329 C152.193062,28.9022573 152.139042,29.887928 152.139042,31.4048915 L152.139042,37.252989 L148.45595,37.252989 L148.45595,22.6754037 Z" id="Fill-12" fill="#231F20" mask="url(#mask-2)"></path>
                        <path d="M171.513643,25.7171512 C170.35385,25.7171512 169.395165,26.1036634 168.640193,26.8760415 C167.88457,27.6484195 167.507084,28.6198707 167.507084,29.7903951 C167.507084,31.0048707 167.893682,32.0008829 168.666878,32.7777854 C169.440073,33.5546878 170.411774,33.9437854 171.58133,33.9437854 C172.7229,33.9437854 173.665964,33.5643829 174.407269,32.8049317 C175.149875,32.0461268 175.520202,31.0494683 175.520202,29.8168951 C175.520202,28.6024195 175.147272,27.6154561 174.401411,26.8560049 C173.654249,26.0965537 172.692311,25.7171512 171.513643,25.7171512 Z M175.331459,22.6754683 L179.001534,22.6754683 L179.001534,35.1627854 C179.001534,37.6279317 178.502341,39.4415659 177.503956,40.6023951 C176.16388,42.1749439 174.14433,42.9608951 171.445956,42.9608951 C170.007604,42.9608951 168.797045,42.7818585 167.816883,42.425078 C166.83607,42.0676512 166.008855,41.542822 165.334587,40.8505902 C164.660319,40.1583585 164.160475,39.316822 163.837009,38.3246878 L167.897587,38.3246878 C168.257501,38.735761 168.720897,39.0460049 169.287777,39.2560659 C169.854006,39.4654805 170.523718,39.5708341 171.297565,39.5708341 C172.286839,39.5708341 173.082813,39.4189439 173.68614,39.1158098 C174.288816,38.8113829 174.713163,38.4184073 174.961132,37.9362366 C175.20845,37.4540659 175.331459,36.6235171 175.331459,35.4445902 C174.683875,36.0870537 174.005051,36.5498341 173.294336,36.8309927 C172.584272,37.1121512 171.778534,37.2530537 170.879076,37.2530537 C168.90964,37.2530537 167.245447,36.5472488 165.887149,35.1362854 C164.529501,33.7246756 163.850677,31.9381878 163.850677,29.776822 C163.850677,27.4635659 164.569853,25.6053341 166.008855,24.2027732 C167.313135,22.9346512 168.869288,22.3005902 170.677316,22.3005902 C171.522755,22.3005902 172.320682,22.4544195 173.0724,22.7627244 C173.822816,23.0710293 174.576487,23.577761 175.331459,24.2835659 L175.331459,22.6754683 Z" id="Fill-13" fill="#231F20" mask="url(#mask-2)"></path>
                        <polygon id="Fill-14" fill="#00ADEE" mask="url(#mask-2)" points="188.576532 17.5441634 192.354647 17.5441634 192.354647 33.6755537 197.858784 33.6755537 197.858784 37.2530537 188.576532 37.2530537"></polygon>
                        <path d="M206.73706,25.6767549 C205.598744,25.6767549 204.653077,26.0768402 203.900057,26.8757183 C203.146387,27.6752427 202.770203,28.7003402 202.770203,29.951011 C202.770203,31.2107305 203.153546,32.2468159 203.920233,33.0592671 C204.68692,33.8723646 205.629985,34.2789134 206.750728,34.2789134 C207.907267,34.2789134 208.865951,33.878828 209.627432,33.0793037 C210.389563,32.2804256 210.770954,31.2327061 210.770954,29.9374378 C210.770954,28.6693159 210.389563,27.6422793 209.627432,26.8556817 C208.865951,26.0697305 207.902711,25.6767549 206.73706,25.6767549 Z M210.608895,22.6751451 L214.291987,22.6751451 L214.291987,37.2533768 L210.608895,37.2533768 L210.608895,35.7124988 C209.89037,36.3911573 209.169242,36.8804378 208.446161,37.1790476 C207.72308,37.4783037 206.939471,37.6282549 206.094683,37.6282549 C204.199443,37.6282549 202.559331,36.897889 201.175649,35.4378037 C199.791968,33.977072 199.100778,32.1614988 199.100778,29.9910841 C199.100778,27.7398768 199.769839,25.8958646 201.108613,24.4577549 C202.447387,23.0196451 204.07318,22.3002671 205.987295,22.3002671 C206.867228,22.3002671 207.693792,22.4657305 208.466337,22.796011 C209.238881,23.1269378 209.952851,23.6226817 210.608895,24.2832427 L210.608895,22.6751451 Z" id="Fill-15" fill="#00ADEE" mask="url(#mask-2)"></path>
                        <path d="M224.991699,25.6767549 C223.831255,25.6767549 222.868665,26.0697305 222.103931,26.8556817 C221.339847,27.6422793 220.957805,28.6693159 220.957805,29.9374378 C220.957805,31.2327061 221.339847,32.2804256 222.103931,33.0793037 C222.868665,33.878828 223.831255,34.2789134 224.991699,34.2789134 C226.116347,34.2789134 227.062665,33.8723646 227.831305,33.0592671 C228.600596,32.2468159 228.985241,31.2107305 228.985241,29.951011 C228.985241,28.7003402 228.607755,27.6752427 227.852132,26.8757183 C227.095858,26.0768402 226.143031,25.6767549 224.991699,25.6767549 Z M221.119864,17.0480963 L221.119864,24.2832427 C221.78502,23.6226817 222.504847,23.1269378 223.278042,22.796011 C224.051889,22.4657305 224.879104,22.3002671 225.760989,22.3002671 C227.676406,22.3002671 229.304151,23.0196451 230.644878,24.4577549 C231.984302,25.8958646 232.654665,27.7398768 232.654665,29.9910841 C232.654665,32.1614988 231.962174,33.977072 230.577191,35.4378037 C229.192207,36.897889 227.550794,37.6282549 225.65295,37.6282549 C224.807512,37.6282549 224.020649,37.4783037 223.29171,37.1790476 C222.563422,36.8804378 221.83904,36.3911573 221.119864,35.7124988 L221.119864,37.2533768 L217.463456,37.2533768 L217.463456,17.0480963 L221.119864,17.0480963 Z" id="Fill-16" fill="#00ADEE" mask="url(#mask-2)"></path>
                        <path d="M25.5721405,38.9498293 C19.262917,38.9498293 14.1473304,33.870878 14.1473304,27.6045976 C14.1473304,21.3389634 19.262917,16.2593659 25.5721405,16.2593659 C26.742998,16.2593659 27.8715511,16.4345244 28.9343696,16.7589878 L27.7133975,20.2944756 L31.9887522,18.2171341 C35.010593,20.2589268 36.9962997,23.7013415 36.9962997,27.6045976 C36.9962997,33.870878 31.881364,38.9498293 25.5721405,38.9498293 Z M29.3203165,16.8850244 C29.1934031,16.8410732 29.065188,16.799061 28.9369729,16.7596341 C29.065188,16.799061 29.1934031,16.8410732 29.3203165,16.8850244 Z M30.113688,17.1920366 C29.8702746,17.0873293 29.623607,16.9910244 29.3717327,16.903122 C29.623607,16.9910244 29.8702746,17.0873293 30.113688,17.1920366 Z M30.8784226,17.5559268 C30.6454226,17.4344146 30.4078668,17.3206585 30.1651042,17.2146585 C30.4078668,17.3206585 30.6454226,17.4344146 30.8784226,17.5559268 Z M31.6112662,17.9734634 C31.3886796,17.8351463 31.1595846,17.703939 30.9265846,17.5804878 C31.1595846,17.703939 31.3886796,17.8351463 31.6112662,17.9734634 Z M31.9874506,18.2164878 C31.8781098,18.1428049 31.7668165,18.0704146 31.6542215,17.9999634 C31.7668165,18.0704146 31.8781098,18.1428049 31.9874506,18.2164878 Z M36.9312159,4.84820732 L34.6493779,0.215231707 L33.5273332,3.46439024 C33.5279841,3.46439024 33.5279841,3.46439024 33.5286349,3.46439024 C31.0242103,2.65129268 28.3505679,2.20919512 25.5721405,2.20919512 C11.4489561,2.20919512 6.50837989e-05,13.5796341 6.50837989e-05,27.6045976 C6.50837989e-05,41.629561 11.4489561,53 25.5721405,53 C39.6953249,53 51.1442159,41.629561 51.1442159,27.6045976 C51.1442159,17.6315488 45.3543612,9.00289024 36.9312159,4.84820732 Z" id="Fill-17" fill="#231F20" mask="url(#mask-2)"></path>
                        <path d="M51.1442159,27.6047268 C51.1442159,17.631678 45.3543612,9.00301951 36.9312159,4.84833659 L41.2905288,13.6980439 L31.9887522,18.2172634 C35.010593,20.2590561 36.9962997,23.7014707 36.9962997,27.6047268 C36.9962997,30.6341293 35.8007103,33.3856049 33.8527522,35.4202878 L32.7515344,32.9124829 L30.8751684,37.6553366 L27.2239673,46.8831537 L36.5784617,50.5330439 L41.2905288,52.3718854 L39.7096433,48.7678854 C46.6013668,44.2182878 51.1442159,36.438922 51.1442159,27.6047268" id="Fill-18" fill="#00ADEE" mask="url(#mask-2)"></path>
                    </g>
                </g>
            </g>
        </g>
    </g>
</svg>