<?xml version="1.0" encoding="UTF-8"?>
<svg width="40px" height="57px" viewBox="0 0 40 57" version="1.1" xmlns="http://www.w3.org/2000/svg" xmlns:xlink="http://www.w3.org/1999/xlink">
    <!-- Generator: Sketch 51.3 (57544) - http://www.bohemiancoding.com/sketch -->
    <title>Shape</title>
    <desc>Created with Sketch.</desc>
    <defs></defs>
    <g id="Page-1" stroke="none" stroke-width="1" fill="none" fill-rule="evenodd">
        <g id="Artboard" transform="translate(-92.000000, -1350.000000)" fill="#00ADEE" fill-rule="nonzero">
            <path d="M132,1375.76584 C131.337447,1377.11056 131.011549,1378.51983 130.147761,1379.40324 C124.815694,1384.85807 119.359595,1390.19077 113.95159,1395.57157 C110.86094,1398.6464 107.876602,1401.8364 104.673311,1404.78846 C101.737067,1407.49373 98.4458155,1407.51398 94.8881506,1405.67946 C95.0153457,1404.22906 95.1083689,1403.16657 95.2140484,1401.96106 C104.580921,1394.86155 113.742762,1387.53929 121.944629,1379.03684 C120.760006,1375.74179 118.307863,1373.86108 116.039234,1372.00314 C110.111058,1367.14885 103.977852,1362.54578 97.964879,1357.79273 C95.6304382,1355.94746 93.1795602,1354.15027 92,1350.47174 C93.5421611,1350.27367 94.7767758,1349.86994 95.9265939,1350.04143 C96.9479513,1350.19394 97.9560196,1350.87294 98.829932,1351.51018 C106.125613,1356.83213 113.651637,1361.88639 120.532194,1367.70382 C123.284923,1370.03067 126.009809,1372.06389 129.178295,1373.65352 C130.116121,1374.12559 130.890682,1374.92167 132,1375.76584 Z" id="Shape"></path>
        </g>
    </g>
</svg>