<?xml version="1.0" encoding="UTF-8"?>
<svg width="39px" height="39px" viewBox="0 0 39 39" version="1.1" xmlns="http://www.w3.org/2000/svg" xmlns:xlink="http://www.w3.org/1999/xlink">
    <!-- Generator: Sketch 51.3 (57544) - http://www.bohemiancoding.com/sketch -->
    <title>Group</title>
    <desc>Created with Sketch.</desc>
    <defs></defs>
    <g id="Symbols" stroke="none" stroke-width="1" fill="none" fill-rule="evenodd">
        <g id="person-full" transform="translate(-942.000000, -129.000000)" fill="#00ADEE" fill-rule="nonzero">
            <g transform="translate(-36.000000, 8.000000)" id="noun_closed_1010372">
                <g transform="translate(972.000000, 121.000000)">
                    <g id="Group" transform="translate(6.000000, 0.000000)">
                        <path d="M31.7856729,5.40145512 C27.4445817,2.30526291 22.1123479,1.12789392 17.0164735,0.0356679926 C15.9147687,-0.199805806 15.2056904,0.7753484 15.2309369,1.64584758 C13.760111,1.88220829 12.3371663,2.29905456 10.9494797,2.89993403 C7.22736285,4.51632197 4.1364084,7.39788269 2.23769789,11.0466179 C-1.51140657,18.2553977 -0.58642724,27.6579419 5.29165317,33.4064294 C10.4919958,38.4915105 18.5660859,40.2879405 25.4126741,38.0564826 C29.5230646,36.7159227 33.207747,34.1070859 35.6070346,30.4206571 C38.1029552,26.5865583 39.3861736,21.5316321 38.8973493,16.9489838 C38.3819725,12.1051414 35.6509983,8.15840542 31.7856729,5.40145512 Z M35.1386685,25.6929995 C33.6891715,29.5049257 30.9703852,32.4920283 27.4149823,34.3540895 C21.7136274,37.3411921 14.6132684,36.8556106 9.29191672,33.2445689 C3.46737629,29.2925114 1.42371608,21.8810734 3.38423697,15.1800478 C4.5268585,11.2714489 7.02103805,8.14554526 10.3274583,5.90122719 C11.9963386,4.76731664 13.8436856,3.94116281 15.766772,3.36955127 C16.196833,3.24228012 16.6460465,3.1185566 17.1048362,3.00503251 C24.1076915,4.35446145 32.3406605,6.3291598 35.5117073,13.610666 C37.1679644,17.4119492 36.5746718,21.9200973 35.1386685,25.6929995 Z" id="Shape"></path>
                        <path d="M22.2476023,19.579883 C23.2360222,18.5893343 24.212317,17.5846602 25.184121,16.5786618 C26.5596459,15.1568448 28.3559564,13.7103083 29.2608479,11.9508043 C29.5505029,11.385344 28.9689474,10.8137039 28.3932299,11.097979 C26.6624846,11.9547771 25.2384594,13.628204 23.8139851,14.9078834 C22.7097032,15.9001977 21.5991342,16.887215 20.5020375,17.8883578 C19.4812841,16.903989 18.4470582,15.9337457 17.4110361,14.9657095 C15.9636589,13.6136371 14.4929296,11.848836 12.702008,10.9593728 C12.1276377,10.6742148 11.5460821,11.2471793 11.8352881,11.8113153 C12.707846,13.513876 14.4102993,14.9131804 15.7121754,16.3124849 C16.7113732,17.3869036 17.7042838,18.4661779 18.7102177,19.5335338 C16.1989756,21.8545253 13.673812,24.168454 11.2784319,26.6033321 C10.0582879,27.8450493 11.9417195,29.6959275 13.2045259,28.4957038 C15.6623278,26.1636768 18.0478282,23.7539597 20.4539862,21.3689622 C22.8035605,23.8254699 25.1455004,26.2930132 27.6095894,28.6356343 C28.8710485,29.8340922 30.7558273,27.9836555 29.5356834,26.7423797 C27.150632,24.3127987 24.6869921,21.9582592 22.2476023,19.579883 Z" id="Shape"></path>
                    </g>
                </g>
            </g>
        </g>
    </g>
</svg>