<?xml version="1.0" encoding="UTF-8"?>
<svg width="48px" height="48px" viewBox="0 0 49 49" version="1.1" xmlns="http://www.w3.org/2000/svg" xmlns:xlink="http://www.w3.org/1999/xlink">
    <g id="Page-1" stroke="none" stroke-width="1" fill="none" fill-rule="evenodd">
        <g id="iconmonstr-pinterest-3" fill="#2EC7FF" fill-rule="nonzero">
            <path d="M38.7916667,0 L10.2083333,0 C4.57129167,0 0,4.57129167 0,10.2083333 L0,38.7916667 C0,44.4287083 4.57129167,49 10.2083333,49 L38.7916667,49 C44.43075,49 49,44.4287083 49,38.7916667 L49,10.2083333 C49,4.57129167 44.43075,0 38.7916667,0 Z M24.5,40.8333333 C22.815625,40.8333333 21.1925,40.578125 19.6632917,40.1044583 C20.328875,39.0203333 21.3231667,37.2420417 21.6927083,35.8210417 L22.7115,31.9398333 C23.244375,32.9565833 24.800125,33.8140833 26.453875,33.8140833 C31.3824583,33.8140833 34.930875,29.283625 34.930875,23.65475 C34.930875,18.258625 30.527,14.22225 24.8593333,14.22225 C17.8115,14.22225 14.0670833,18.9527917 14.0670833,24.1059583 C14.0670833,26.502875 15.343125,29.4837083 17.38275,30.435125 C17.6910417,30.5780417 17.8564167,30.51475 17.9299167,30.2166667 L18.3831667,28.364875 C18.4219583,28.1995 18.4035833,28.058625 18.2688333,27.8952917 C17.5930417,27.078625 17.0540417,25.571875 17.0540417,24.16925 C17.0540417,20.5657083 19.7817083,17.0805833 24.4285417,17.0805833 C28.4404167,17.0805833 31.24975,19.814375 31.24975,23.7262083 C31.24975,28.144375 29.0182083,31.2048333 26.1149583,31.2048333 C24.5102083,31.2048333 23.3097083,29.8797917 23.6955833,28.2525833 C24.157,26.3109583 25.0492083,24.2162083 25.0492083,22.8135833 C25.0492083,21.56 24.3754583,20.512625 22.9830417,20.512625 C21.3435833,20.512625 20.0267083,22.20925 20.0267083,24.4795833 C20.0267083,25.927125 20.5146667,26.9050833 20.5146667,26.9050833 C20.5146667,26.9050833 18.895625,33.7507917 18.5995833,35.0247917 C18.270875,36.4355833 18.3995,38.4180417 18.5424167,39.708375 C12.4705,37.3298333 8.16666667,31.4192083 8.16666667,24.5 C8.16666667,15.4799167 15.4799167,8.16666667 24.5,8.16666667 C33.5200833,8.16666667 40.8333333,15.4799167 40.8333333,24.5 C40.8333333,33.5200833 33.5200833,40.8333333 24.5,40.8333333 Z" id="Shape"></path>
        </g>
    </g>
</svg>