<?xml version="1.0" encoding="UTF-8"?>
<svg width="32px" height="26px" viewBox="0 0 32 26" version="1.1" xmlns="http://www.w3.org/2000/svg" xmlns:xlink="http://www.w3.org/1999/xlink">
    <!-- Generator: Sketch 51.3 (57544) - http://www.bohemiancoding.com/sketch -->
    <title>Fill 3</title>
    <desc>Created with Sketch.</desc>
    <defs></defs>
    <g id="Symbols" stroke="none" stroke-width="1" fill="none" fill-rule="evenodd">
        <g id="icon/tw" transform="translate(-24.000000, -27.000000)" fill="#2EC7FF">
            <g id="Fill-3">
                <path d="M55.3367876,30.3315365 L52.3460361,31.1964254 C54.3096191,29.5816921 54.3941852,27.8478054 54.3941852,27.8478054 C52.946249,28.4743877 50.1844448,29.5775834 50.1844448,29.5775834 C49.0128953,28.336745 47.3483874,27.5581395 45.506497,27.5581395 C41.9629723,27.5581395 39.0877257,30.4219287 39.0877257,33.9492787 C39.0877257,34.3211193 39.1186645,34.6847425 39.1826047,35.0401481 C39.1826047,35.0401481 33.8631924,34.598459 30.5444896,32.1311629 C27.229912,29.6618125 26.3718757,28.5565624 26.3718757,28.5565624 C24.0638407,34.006801 27.7414336,36.8110134 27.7414336,36.8110134 C26.5430705,36.8110134 25.3467699,36.2152467 25.3467699,36.2152467 C25.9449202,41.7456056 30.1299096,42.5981684 30.1299096,42.5981684 C29.5338219,42.8097683 27.5661137,42.6844518 27.5661137,42.6844518 C29.702954,46.9390481 33.2918557,47.2780189 33.2918557,47.2780189 C29.2780611,50.5958233 23.9792746,49.6631402 23.9792746,49.6631402 C26.2027436,51.4463317 29.123367,52.7241487 34.1003899,52.8967156 C44.772216,53.2582844 52.2573449,44.52722 52.496605,33.9574961 C52.5007302,33.8054729 54.7365747,31.7490504 55.3367876,30.3315365"></path>
            </g>
        </g>
    </g>
</svg>